<svg width="100" height="100" viewBox="0 0 100 100" fill="none" xmlns="http://www.w3.org/2000/svg">
<path d="M100 0H0V100H100V0Z" fill="url(#paint0_linear_956_3413)"/>
<path d="M48.1894 78.4613C38.7606 77.3061 30.6431 72.0297 25.7882 63.881C24.1023 61.0555 22.713 57.3402 22.0105 53.7186C21.7919 52.6258 21.7295 51.5019 21.7295 48.7232C21.7295 45.5699 21.7763 44.9142 22.1041 43.2595C24.2428 32.4414 31.7515 24.7766 42.5227 22.3882C43.8184 22.0916 44.5521 22.0448 47.4088 22.0448C51.1554 22.0292 52.3418 22.2165 55.6512 23.2936C59.5226 24.5893 62.5667 26.4938 65.6107 29.5222C69.3572 33.2532 71.5739 37.3899 72.7135 42.7131C73.1974 44.9142 73.2443 49.9876 72.8072 52.1107C72.5574 53.3439 72.5574 53.5312 72.776 53.9371C73.0413 54.4679 73.0257 54.4523 76.7566 55.4357C79.5821 56.185 79.9256 56.3567 80.1285 57.1841C80.3471 58.0583 78.3177 62.5853 76.46 65.3484C71.9018 72.1546 64.799 76.7597 56.541 78.2427C54.8863 78.5393 49.9065 78.6642 48.1894 78.4613ZM55.4483 67.69C58.8982 66.9875 62.0203 65.3796 64.7053 62.9288C66.5786 61.2116 68.6548 58.1988 69.4977 55.9353C70.2939 53.8122 70.3563 53.8591 64.5804 52.3761C62.9413 51.939 62.6447 51.4863 62.8945 49.7067C63.5345 45.1952 61.7861 40.2155 58.383 36.9216C53.0598 31.7389 44.8331 31.0833 38.823 35.3606C34.3896 38.5139 32.0481 43.6185 32.3134 49.5818C32.532 54.624 34.4677 58.9949 38.0425 62.5385C42.5852 67.0656 49.1104 68.9857 55.4483 67.69Z" fill="white"/>
<defs>
<linearGradient id="paint0_linear_956_3413" x1="31.95" y1="1.09118e-06" x2="75.95" y2="100" gradientUnits="userSpaceOnUse">
<stop stop-color="#657EFF"/>
<stop offset="0.432292" stop-color="#776FFF"/>
<stop offset="1" stop-color="#5A9EFD"/>
</linearGradient>
</defs>
</svg>
