<svg xmlns="http://www.w3.org/2000/svg" xmlns:xlink="http://www.w3.org/1999/xlink" width="30" height="30" viewBox="0 0 30 30" fill="none"><defs><rect id="path_0" x="0" y="0" width="30" height="30" /><rect id="path_1" x="0" y="0" width="16" height="16" /></defs><g opacity="1" transform="translate(0 0)  rotate(0 15 15)"><mask id="bg-mask" fill="white"><use xlink:href="#path_0"></use></mask><g mask="url(#bg-mask)" ><path id="矩形 1" fill-rule="evenodd" style="fill:#FF0000" transform="translate(0 0)  rotate(0 15 15)" opacity="1" d="M0,30L30,30L30,0L0,0L0,30Z " /><g opacity="1" transform="translate(7 7)  rotate(0 8 8)"><mask id="bg-mask" fill="white"><use xlink:href="#path_1"></use></mask><g mask="url(#bg-mask)" ><path id="分组 1" fill-rule="evenodd" style="fill:#FFFFFF" transform="translate(0 2.666666671874999)  rotate(0 8 5.6666666640625)" opacity="1" d="M10.6667 5.67333L6.66667 3.33333L6.66667 8.00333L10.6667 5.67333Z M13.6 11.17C13.91 11.13 14.6 11.12 15.2 10.48C15.68 9.99 15.84 8.88 15.84 8.88C15.84 8.88 16 7.58 16 6.28L16 5.05C16 3.75 15.84 2.44 15.84 2.44C15.84 2.44 15.68 1.33 15.2 0.85C14.6 0.2 13.91 0.2 13.6 0.16C11.36 0 8 0 8 0L8 0C8 0 4.64 0 2.4 0.16C2.09 0.2 1.4 0.2 0.8 0.85C0.32 1.33 0.16 2.45 0.16 2.45C0.16 2.45 0 3.75 0 5.05L0 6.27C0 7.58 0.16 8.88 0.16 8.88C0.16 8.88 0.32 9.99 0.8 10.48C1.4 11.12 2.2 11.1 2.56 11.17C3.84 11.3 8 11.33 8 11.33C8 11.33 11.36 11.33 13.6 11.17Z " /></g></g></g></g></svg>